<svg width="47" height="86" viewBox="0 0 47 86" fill="none" xmlns="http://www.w3.org/2000/svg">
<path d="M0 57.3333H9.4C9.4 62.4933 15.839 66.8889 23.5 66.8889C31.161 66.8889 37.6 62.4933 37.6 57.3333C37.6 52.0778 32.712 50.1667 22.372 47.6344C12.408 45.1022 0 41.9489 0 28.6667C0 20.1144 6.909 12.8522 16.45 10.4156V0H30.55V10.4156C40.091 12.8522 47 20.1144 47 28.6667H37.6C37.6 23.5067 31.161 19.1111 23.5 19.1111C15.839 19.1111 9.4 23.5067 9.4 28.6667C9.4 33.9222 14.288 35.8333 24.628 38.3656C34.592 40.8978 47 44.0511 47 57.3333C47 65.8856 40.091 73.1478 30.55 75.5844V86H16.45V75.5844C6.909 73.1478 0 65.8856 0 57.3333Z" fill="white"/>
</svg>
