<svg width="71" height="76" viewBox="0 0 71 76" fill="none" xmlns="http://www.w3.org/2000/svg">
<path d="M14.2 76C10.295 76 6.95208 74.1396 4.17125 70.4188C1.39042 66.6979 0 62.225 0 57V19C0 13.775 1.39042 9.30208 4.17125 5.58125C6.95208 1.86042 10.295 0 14.2 0H56.8C60.705 0 64.0479 1.86042 66.8288 5.58125C69.6096 9.30208 71 13.775 71 19V57C71 62.225 69.6096 66.6979 66.8288 70.4188C64.0479 74.1396 60.705 76 56.8 76H14.2ZM14.2 19H56.8C58.1017 19 59.3442 19.1979 60.5275 19.5938C61.7108 19.9896 62.835 20.6229 63.9 21.4937V19C63.9 16.3875 63.2054 14.1518 61.8162 12.293C60.4269 10.4342 58.7549 9.50317 56.8 9.5H14.2C12.2475 9.5 10.5766 10.431 9.1874 12.293C7.79817 14.155 7.10237 16.3907 7.1 19V21.4937C8.165 20.6229 9.28917 19.9896 10.4725 19.5938C11.6558 19.1979 12.8983 19 14.2 19ZM7.6325 34.4375L47.1262 47.2625C47.6587 47.4208 48.1912 47.4208 48.7238 47.2625C49.2563 47.1042 49.7592 46.7875 50.2325 46.3125L62.5687 32.5375C61.9179 31.35 61.0896 30.381 60.0837 29.6305C59.0779 28.88 57.9833 28.5032 56.8 28.5H14.2C12.6617 28.5 11.3162 29.0352 10.1636 30.1055C9.01108 31.1758 8.16737 32.6198 7.6325 34.4375Z" fill="white"/>
</svg>
