<svg width="57" height="57" viewBox="0 0 57 57" fill="none" xmlns="http://www.w3.org/2000/svg">
<path d="M44.2009 57H48.5018C50.6782 57 52.4659 55.3159 52.725 53.1914L57 10.4932H44.0455V0H38.9414V10.4932H26.0645L26.8418 16.5559C31.2723 17.7736 35.4177 19.9759 37.905 22.4114C41.6359 26.0905 44.2009 29.8991 44.2009 36.1173V57ZM0 54.4091V51.8182H38.9414V54.4091C38.9414 55.8082 37.7755 57 36.2727 57H2.59091C1.16591 57 0 55.8082 0 54.4091ZM38.9414 36.2727C38.9414 15.5455 0 15.5455 0 36.2727H38.9414ZM0 41.4545H38.8636V46.6364H0V41.4545Z" fill="white"/>
</svg>
