<svg width="82" height="67" viewBox="0 0 82 67" fill="none" xmlns="http://www.w3.org/2000/svg">
<path d="M64.9167 18.1459C59.2792 18.1459 54.6667 16.8897 54.6667 15.3542V18.1459C54.6667 19.6813 59.2792 20.9376 64.9167 20.9376C70.5542 20.9376 75.1667 19.6813 75.1667 18.1459V15.3542C75.1667 16.8897 70.5542 18.1459 64.9167 18.1459Z" fill="#FFA000"/>
<path d="M64.9167 13.9584C59.2792 13.9584 54.6667 12.7022 54.6667 11.1667V13.9584C54.6667 15.4938 59.2792 16.7501 64.9167 16.7501C70.5542 16.7501 75.1667 15.4938 75.1667 13.9584V11.1667C75.1667 12.7022 70.5542 13.9584 64.9167 13.9584ZM64.9167 22.3334C59.2792 22.3334 54.6667 21.0772 54.6667 19.5417V22.3334C54.6667 23.8688 59.2792 25.1251 64.9167 25.1251C70.5542 25.1251 75.1667 23.8688 75.1667 22.3334V19.5417C75.1667 21.0772 70.5542 22.3334 64.9167 22.3334Z" fill="#FFA000"/>
<path d="M64.9167 26.5209C59.2792 26.5209 54.6667 25.2647 54.6667 23.7292V26.5209C54.6667 28.0563 59.2792 29.3126 64.9167 29.3126C70.5542 29.3126 75.1667 28.0563 75.1667 26.5209V23.7292C75.1667 25.2647 70.5542 26.5209 64.9167 26.5209Z" fill="#FFA000"/>
<path d="M64.9167 30.7084C59.2792 30.7084 54.6667 29.4522 54.6667 27.9167V30.7084C54.6667 32.2438 59.2792 33.5001 64.9167 33.5001C70.5542 33.5001 75.1667 32.2438 75.1667 30.7084V27.9167C75.1667 29.4522 70.5542 30.7084 64.9167 30.7084Z" fill="#FFA000"/>
<path d="M64.9167 34.8959C59.2792 34.8959 54.6667 33.6397 54.6667 32.1042V34.8959C54.6667 36.4313 59.2792 37.6876 64.9167 37.6876C70.5542 37.6876 75.1667 36.4313 75.1667 34.8959V32.1042C75.1667 33.6397 70.5542 34.8959 64.9167 34.8959Z" fill="#FFA000"/>
<path d="M64.9167 39.0834C59.2792 39.0834 54.6667 37.8272 54.6667 36.2917V39.0834C54.6667 40.6188 59.2792 41.8751 64.9167 41.8751C70.5542 41.8751 75.1667 40.6188 75.1667 39.0834V36.2917C75.1667 37.8272 70.5542 39.0834 64.9167 39.0834Z" fill="#FFA000"/>
<path d="M64.9167 43.2709C59.2792 43.2709 54.6667 42.0147 54.6667 40.4792V43.2709C54.6667 44.8063 59.2792 46.0626 64.9167 46.0626C70.5542 46.0626 75.1667 44.8063 75.1667 43.2709V40.4792C75.1667 42.0147 70.5542 43.2709 64.9167 43.2709Z" fill="#FFA000"/>
<path d="M64.9167 47.4584C59.2792 47.4584 54.6667 46.2022 54.6667 44.6667V47.4584C54.6667 48.9938 59.2792 50.2501 64.9167 50.2501C70.5542 50.2501 75.1667 48.9938 75.1667 47.4584V44.6667C75.1667 46.2022 70.5542 47.4584 64.9167 47.4584Z" fill="#FFA000"/>
<path d="M64.9167 51.6459C59.2792 51.6459 54.6667 50.3897 54.6667 48.8542V51.6459C54.6667 53.1813 59.2792 54.4376 64.9167 54.4376C70.5542 54.4376 75.1667 53.1813 75.1667 51.6459V48.8542C75.1667 50.3897 70.5542 51.6459 64.9167 51.6459Z" fill="#FFA000"/>
<path d="M64.9167 55.8334C59.2792 55.8334 54.6667 54.5772 54.6667 53.0417V55.8334C54.6667 57.3688 59.2792 58.6251 64.9167 58.6251C70.5542 58.6251 75.1667 57.3688 75.1667 55.8334V53.0417C75.1667 54.5772 70.5542 55.8334 64.9167 55.8334Z" fill="#FFA000"/>
<path d="M64.9167 13.9583C70.5776 13.9583 75.1667 12.7085 75.1667 11.1667C75.1667 9.62487 70.5776 8.375 64.9167 8.375C59.2557 8.375 54.6667 9.62487 54.6667 11.1667C54.6667 12.7085 59.2557 13.9583 64.9167 13.9583Z" fill="white"/>
<path d="M64.9167 16.75C60.1333 16.75 56.2042 15.9125 55.0083 14.6562C54.8375 14.9354 54.6667 15.075 54.6667 15.3542C54.6667 16.8896 59.2792 18.1458 64.9167 18.1458C70.5542 18.1458 75.1667 16.8896 75.1667 15.3542C75.1667 15.075 74.9958 14.9354 74.825 14.6562C73.6292 15.9125 69.7 16.75 64.9167 16.75ZM64.9167 20.9375C60.1333 20.9375 56.2042 20.1 55.0083 18.8437C54.8375 19.1229 54.6667 19.2625 54.6667 19.5417C54.6667 21.0771 59.2792 22.3333 64.9167 22.3333C70.5542 22.3333 75.1667 21.0771 75.1667 19.5417C75.1667 19.2625 74.9958 19.1229 74.825 18.8437C73.6292 20.1 69.7 20.9375 64.9167 20.9375ZM64.9167 25.125C60.1333 25.125 56.2042 24.2875 55.0083 23.0312C54.8375 23.3104 54.6667 23.45 54.6667 23.7292C54.6667 25.2646 59.2792 26.5208 64.9167 26.5208C70.5542 26.5208 75.1667 25.2646 75.1667 23.7292C75.1667 23.45 74.9958 23.3104 74.825 23.0312C73.6292 24.2875 69.7 25.125 64.9167 25.125ZM64.9167 29.3125C60.1333 29.3125 56.2042 28.475 55.0083 27.2187C54.8375 27.4979 54.6667 27.6375 54.6667 27.9167C54.6667 29.4521 59.2792 30.7083 64.9167 30.7083C70.5542 30.7083 75.1667 29.4521 75.1667 27.9167C75.1667 27.6375 74.9958 27.4979 74.825 27.2187C73.6292 28.475 69.7 29.3125 64.9167 29.3125ZM64.9167 33.5C60.1333 33.5 56.2042 32.6625 55.0083 31.4062C54.8375 31.6854 54.6667 31.825 54.6667 32.1042C54.6667 33.6396 59.2792 34.8958 64.9167 34.8958C70.5542 34.8958 75.1667 33.6396 75.1667 32.1042C75.1667 31.825 74.9958 31.6854 74.825 31.4062C73.6292 32.6625 69.7 33.5 64.9167 33.5ZM64.9167 37.6875C60.1333 37.6875 56.2042 36.85 55.0083 35.5937C54.8375 35.8729 54.6667 36.0125 54.6667 36.2917C54.6667 37.8271 59.2792 39.0833 64.9167 39.0833C70.5542 39.0833 75.1667 37.8271 75.1667 36.2917C75.1667 36.0125 74.9958 35.8729 74.825 35.5937C73.6292 36.85 69.7 37.6875 64.9167 37.6875ZM64.9167 41.875C60.1333 41.875 56.2042 41.0375 55.0083 39.7812C54.8375 40.0604 54.6667 40.2 54.6667 40.4792C54.6667 42.0146 59.2792 43.2708 64.9167 43.2708C70.5542 43.2708 75.1667 42.0146 75.1667 40.4792C75.1667 40.2 74.9958 40.0604 74.825 39.7812C73.6292 41.0375 69.7 41.875 64.9167 41.875ZM64.9167 46.0625C60.1333 46.0625 56.2042 45.225 55.0083 43.9687C54.8375 44.2479 54.6667 44.3875 54.6667 44.6667C54.6667 46.2021 59.2792 47.4583 64.9167 47.4583C70.5542 47.4583 75.1667 46.2021 75.1667 44.6667C75.1667 44.3875 74.9958 44.2479 74.825 43.9687C73.6292 45.225 69.7 46.0625 64.9167 46.0625ZM64.9167 50.25C60.1333 50.25 56.2042 49.4125 55.0083 48.1562C54.8375 48.4354 54.6667 48.575 54.6667 48.8542C54.6667 50.3896 59.2792 51.6458 64.9167 51.6458C70.5542 51.6458 75.1667 50.3896 75.1667 48.8542C75.1667 48.575 74.9958 48.4354 74.825 48.1562C73.6292 49.4125 69.7 50.25 64.9167 50.25ZM64.9167 54.4375C60.1333 54.4375 56.2042 53.6 55.0083 52.3437C54.8375 52.6229 54.6667 52.7625 54.6667 53.0417C54.6667 54.5771 59.2792 55.8333 64.9167 55.8333C70.5542 55.8333 75.1667 54.5771 75.1667 53.0417C75.1667 52.7625 74.9958 52.6229 74.825 52.3437C73.6292 53.6 69.7 54.4375 64.9167 54.4375Z" fill="white"/>
<path d="M17.0833 26.5209C11.4458 26.5209 6.83334 25.2647 6.83334 23.7292V26.5209C6.83334 28.0563 11.4458 29.3126 17.0833 29.3126C22.7208 29.3126 27.3333 28.0563 27.3333 26.5209V23.7292C27.3333 25.2647 22.7208 26.5209 17.0833 26.5209Z" fill="#FFA000"/>
<path d="M17.0833 22.3334C11.4458 22.3334 6.83334 21.0772 6.83334 19.5417V22.3334C6.83334 23.8688 11.4458 25.1251 17.0833 25.1251C22.7208 25.1251 27.3333 23.8688 27.3333 22.3334V19.5417C27.3333 21.0772 22.7208 22.3334 17.0833 22.3334ZM17.0833 30.7084C11.4458 30.7084 6.83334 29.4522 6.83334 27.9167V30.7084C6.83334 32.2438 11.4458 33.5001 17.0833 33.5001C22.7208 33.5001 27.3333 32.2438 27.3333 30.7084V27.9167C27.3333 29.4522 22.7208 30.7084 17.0833 30.7084Z" fill="#FFA000"/>
<path d="M17.0833 34.8959C11.4458 34.8959 6.83334 33.6397 6.83334 32.1042V34.8959C6.83334 36.4313 11.4458 37.6876 17.0833 37.6876C22.7208 37.6876 27.3333 36.4313 27.3333 34.8959V32.1042C27.3333 33.6397 22.7208 34.8959 17.0833 34.8959Z" fill="#FFA000"/>
<path d="M17.0833 39.0834C11.4458 39.0834 6.83334 37.8272 6.83334 36.2917V39.0834C6.83334 40.6188 11.4458 41.8751 17.0833 41.8751C22.7208 41.8751 27.3333 40.6188 27.3333 39.0834V36.2917C27.3333 37.8272 22.7208 39.0834 17.0833 39.0834Z" fill="#FFA000"/>
<path d="M17.0833 43.2709C11.4458 43.2709 6.83334 42.0147 6.83334 40.4792V43.2709C6.83334 44.8063 11.4458 46.0626 17.0833 46.0626C22.7208 46.0626 27.3333 44.8063 27.3333 43.2709V40.4792C27.3333 42.0147 22.7208 43.2709 17.0833 43.2709Z" fill="#FFA000"/>
<path d="M17.0833 47.4584C11.4458 47.4584 6.83334 46.2022 6.83334 44.6667V47.4584C6.83334 48.9938 11.4458 50.2501 17.0833 50.2501C22.7208 50.2501 27.3333 48.9938 27.3333 47.4584V44.6667C27.3333 46.2022 22.7208 47.4584 17.0833 47.4584Z" fill="#FFA000"/>
<path d="M17.0833 51.6459C11.4458 51.6459 6.83334 50.3897 6.83334 48.8542V51.6459C6.83334 53.1813 11.4458 54.4376 17.0833 54.4376C22.7208 54.4376 27.3333 53.1813 27.3333 51.6459V48.8542C27.3333 50.3897 22.7208 51.6459 17.0833 51.6459Z" fill="#FFA000"/>
<path d="M17.0833 55.8334C11.4458 55.8334 6.83334 54.5772 6.83334 53.0417V55.8334C6.83334 57.3688 11.4458 58.6251 17.0833 58.6251C22.7208 58.6251 27.3333 57.3688 27.3333 55.8334V53.0417C27.3333 54.5772 22.7208 55.8334 17.0833 55.8334Z" fill="#FFA000"/>
<path d="M17.0833 22.3333C22.7443 22.3333 27.3333 21.0835 27.3333 19.5417C27.3333 17.9999 22.7443 16.75 17.0833 16.75C11.4224 16.75 6.83334 17.9999 6.83334 19.5417C6.83334 21.0835 11.4224 22.3333 17.0833 22.3333Z" fill="white"/>
<path d="M17.0833 25.125C12.3 25.125 8.37084 24.2875 7.17501 23.0312C7.00418 23.3104 6.83334 23.45 6.83334 23.7292C6.83334 25.2646 11.4458 26.5208 17.0833 26.5208C22.7208 26.5208 27.3333 25.2646 27.3333 23.7292C27.3333 23.45 27.1625 23.3104 26.9917 23.0312C25.7958 24.2875 21.8667 25.125 17.0833 25.125ZM17.0833 29.3125C12.3 29.3125 8.37084 28.475 7.17501 27.2187C7.00418 27.4979 6.83334 27.6375 6.83334 27.9167C6.83334 29.4521 11.4458 30.7083 17.0833 30.7083C22.7208 30.7083 27.3333 29.4521 27.3333 27.9167C27.3333 27.6375 27.1625 27.4979 26.9917 27.2187C25.7958 28.475 21.8667 29.3125 17.0833 29.3125ZM17.0833 33.5C12.3 33.5 8.37084 32.6625 7.17501 31.4062C7.00418 31.6854 6.83334 31.825 6.83334 32.1042C6.83334 33.6396 11.4458 34.8958 17.0833 34.8958C22.7208 34.8958 27.3333 33.6396 27.3333 32.1042C27.3333 31.825 27.1625 31.6854 26.9917 31.4062C25.7958 32.6625 21.8667 33.5 17.0833 33.5ZM17.0833 37.6875C12.3 37.6875 8.37084 36.85 7.17501 35.5937C7.00418 35.8729 6.83334 36.0125 6.83334 36.2917C6.83334 37.8271 11.4458 39.0833 17.0833 39.0833C22.7208 39.0833 27.3333 37.8271 27.3333 36.2917C27.3333 36.0125 27.1625 35.8729 26.9917 35.5937C25.7958 36.85 21.8667 37.6875 17.0833 37.6875ZM17.0833 41.875C12.3 41.875 8.37084 41.0375 7.17501 39.7812C7.00418 40.0604 6.83334 40.2 6.83334 40.4792C6.83334 42.0146 11.4458 43.2708 17.0833 43.2708C22.7208 43.2708 27.3333 42.0146 27.3333 40.4792C27.3333 40.2 27.1625 40.0604 26.9917 39.7812C25.7958 41.0375 21.8667 41.875 17.0833 41.875ZM17.0833 46.0625C12.3 46.0625 8.37084 45.225 7.17501 43.9687C7.00418 44.2479 6.83334 44.3875 6.83334 44.6667C6.83334 46.2021 11.4458 47.4583 17.0833 47.4583C22.7208 47.4583 27.3333 46.2021 27.3333 44.6667C27.3333 44.3875 27.1625 44.2479 26.9917 43.9687C25.7958 45.225 21.8667 46.0625 17.0833 46.0625ZM17.0833 50.25C12.3 50.25 8.37084 49.4125 7.17501 48.1562C7.00418 48.4354 6.83334 48.575 6.83334 48.8542C6.83334 50.3896 11.4458 51.6458 17.0833 51.6458C22.7208 51.6458 27.3333 50.3896 27.3333 48.8542C27.3333 48.575 27.1625 48.4354 26.9917 48.1562C25.7958 49.4125 21.8667 50.25 17.0833 50.25ZM17.0833 54.4375C12.3 54.4375 8.37084 53.6 7.17501 52.3437C7.00418 52.6229 6.83334 52.7625 6.83334 53.0417C6.83334 54.5771 11.4458 55.8333 17.0833 55.8333C22.7208 55.8333 27.3333 54.5771 27.3333 53.0417C27.3333 52.7625 27.1625 52.6229 26.9917 52.3437C25.7958 53.6 21.8667 54.4375 17.0833 54.4375Z" fill="white"/>
<path d="M41 39.0834C35.3625 39.0834 30.75 37.8272 30.75 36.2917V39.0834C30.75 40.6188 35.3625 41.8751 41 41.8751C46.6375 41.8751 51.25 40.6188 51.25 39.0834V36.2917C51.25 37.8272 46.6375 39.0834 41 39.0834Z" fill="#FFA000"/>
<path d="M41 34.8959C35.3625 34.8959 30.75 33.6397 30.75 32.1042V34.8959C30.75 36.4313 35.3625 37.6876 41 37.6876C46.6375 37.6876 51.25 36.4313 51.25 34.8959V32.1042C51.25 33.6397 46.6375 34.8959 41 34.8959ZM41 43.2709C35.3625 43.2709 30.75 42.0147 30.75 40.4792V43.2709C30.75 44.8063 35.3625 46.0626 41 46.0626C46.6375 46.0626 51.25 44.8063 51.25 43.2709V40.4792C51.25 42.0147 46.6375 43.2709 41 43.2709Z" fill="#FFA000"/>
<path d="M41 47.4584C35.3625 47.4584 30.75 46.2022 30.75 44.6667V47.4584C30.75 48.9938 35.3625 50.2501 41 50.2501C46.6375 50.2501 51.25 48.9938 51.25 47.4584V44.6667C51.25 46.2022 46.6375 47.4584 41 47.4584Z" fill="#FFA000"/>
<path d="M41 51.6459C35.3625 51.6459 30.75 50.3897 30.75 48.8542V51.6459C30.75 53.1813 35.3625 54.4376 41 54.4376C46.6375 54.4376 51.25 53.1813 51.25 51.6459V48.8542C51.25 50.3897 46.6375 51.6459 41 51.6459Z" fill="#FFA000"/>
<path d="M41 55.8334C35.3625 55.8334 30.75 54.5772 30.75 53.0417V55.8334C30.75 57.3688 35.3625 58.6251 41 58.6251C46.6375 58.6251 51.25 57.3688 51.25 55.8334V53.0417C51.25 54.5772 46.6375 55.8334 41 55.8334Z" fill="#FFA000"/>
<path d="M41 34.8958C46.6609 34.8958 51.25 33.646 51.25 32.1042C51.25 30.5624 46.6609 29.3125 41 29.3125C35.3391 29.3125 30.75 30.5624 30.75 32.1042C30.75 33.646 35.3391 34.8958 41 34.8958Z" fill="white"/>
<path d="M41 37.6875C36.2167 37.6875 32.2875 36.85 31.0917 35.5938C30.9208 35.8729 30.75 36.0125 30.75 36.2917C30.75 37.8271 35.3625 39.0833 41 39.0833C46.6375 39.0833 51.25 37.8271 51.25 36.2917C51.25 36.0125 51.0792 35.8729 50.9083 35.5938C49.7125 36.85 45.7833 37.6875 41 37.6875ZM41 41.875C36.2167 41.875 32.2875 41.0375 31.0917 39.7813C30.9208 40.0604 30.75 40.2 30.75 40.4792C30.75 42.0146 35.3625 43.2708 41 43.2708C46.6375 43.2708 51.25 42.0146 51.25 40.4792C51.25 40.2 51.0792 40.0604 50.9083 39.7813C49.7125 41.0375 45.7833 41.875 41 41.875ZM41 46.0625C36.2167 46.0625 32.2875 45.225 31.0917 43.9688C30.9208 44.2479 30.75 44.3875 30.75 44.6667C30.75 46.2021 35.3625 47.4583 41 47.4583C46.6375 47.4583 51.25 46.2021 51.25 44.6667C51.25 44.3875 51.0792 44.2479 50.9083 43.9688C49.7125 45.225 45.7833 46.0625 41 46.0625ZM41 50.25C36.2167 50.25 32.2875 49.4125 31.0917 48.1563C30.9208 48.4354 30.75 48.575 30.75 48.8542C30.75 50.3896 35.3625 51.6458 41 51.6458C46.6375 51.6458 51.25 50.3896 51.25 48.8542C51.25 48.575 51.0792 48.4354 50.9083 48.1563C49.7125 49.4125 45.7833 50.25 41 50.25ZM41 54.4375C36.2167 54.4375 32.2875 53.6 31.0917 52.3438C30.9208 52.6229 30.75 52.7625 30.75 53.0417C30.75 54.5771 35.3625 55.8333 41 55.8333C46.6375 55.8333 51.25 54.5771 51.25 53.0417C51.25 52.7625 51.0792 52.6229 50.9083 52.3438C49.7125 53.6 45.7833 54.4375 41 54.4375Z" fill="white"/>
</svg>
