<svg width="69" height="57" viewBox="0 0 69 57" fill="none" xmlns="http://www.w3.org/2000/svg">
<path d="M69 52.25V57H0V0H4.3125V52.25H69ZM64.6875 5.9375V22.0923C64.687 22.3285 64.6224 22.5592 64.5018 22.7547C64.3812 22.9501 64.2102 23.1012 64.0109 23.1886C63.8116 23.276 63.5931 23.2957 63.3835 23.245C63.174 23.1944 62.9831 23.0758 62.8353 22.9045L58.76 18.4158L37.4347 41.8974C37.3357 42.0154 37.2157 42.1096 37.0821 42.174C36.9485 42.2384 36.8042 42.2716 36.6584 42.2716C36.5126 42.2716 36.3683 42.2384 36.2347 42.174C36.1011 42.1096 35.9811 42.0154 35.8822 41.8974L28.0334 33.25L14.0178 48.6875L7.54903 41.5625L27.2572 19.8526C27.3561 19.7346 27.4761 19.6404 27.6097 19.576C27.7433 19.5116 27.8876 19.4784 28.0334 19.4784C28.1792 19.4784 28.3235 19.5116 28.4571 19.576C28.5907 19.6404 28.7107 19.7346 28.8097 19.8526L36.6584 28.5L52.2912 11.2812L48.2159 6.7925C48.0585 6.63039 47.9492 6.41979 47.9021 6.18818C47.855 5.95658 47.8724 5.71472 47.9521 5.49418C48.0317 5.27364 48.1698 5.08466 48.3484 4.95191C48.5271 4.81915 48.7379 4.74879 48.9533 4.75H63.6633C63.9378 4.75 64.201 4.87011 64.3951 5.0839C64.5892 5.29769 64.6983 5.58765 64.6983 5.89V5.93987L64.6875 5.9375Z" fill="white"/>
</svg>
