<svg width="82" height="101" viewBox="0 0 82 101" fill="none" xmlns="http://www.w3.org/2000/svg">
<path d="M0 0V101H82V0H0ZM4.73077 4.00441H59.9231V79.1982H4.73077V4.00441ZM64.1282 7.56388H77.2692V22.2467H64.1282V7.56388ZM68.859 11.5683V18.2423H72.5385V11.5683H68.859ZM15.5064 13.1256V18.2423H11.3013V22.2467H53.3526V18.2423H36.5321V11.3458L32.3269 12.6806L30.75 18.2423H23.9167V13.1256H15.5064ZM66.4936 25.3612H74.9038V29.3656H66.4936V25.3612ZM42.8397 27.7639C41.4205 27.7639 40.1853 28.4313 39.4756 29.2544C38.7135 30.3445 38.2929 31.3901 38.3981 32.4802H11.3013V36.4846H53.3526V32.4802H47.2814C47.3603 31.3456 46.8609 30.033 46.2038 29.2544C45.4942 28.4313 44.259 27.7639 42.8397 27.7639ZM66.4936 32.4802H74.9038V36.4846H66.4936V32.4802ZM15.5064 41.6013V46.7181H11.3013V50.7225H53.3526V46.7181H47.0449V41.6013H40.7372V46.7181H32.3269V39.8216H28.1218V46.7181H19.7115V43.3811L15.5064 41.6013ZM17.609 55.2608C16.0058 55.2608 14.7705 56.1284 14.1135 57.0405C13.2724 58.3976 13.0622 59.5989 13.1936 60.9559H11.3013V64.9604H53.3526V60.9559H36.5321V55.8392H28.1218V60.9559H22.0244C22.1821 59.6211 21.8404 58.0639 21.1045 57.0405C20.4474 56.1284 19.2122 55.2608 17.609 55.2608ZM66.4936 71.6344H74.9038V75.6388H66.4936V71.6344ZM4.73077 83.2026H59.9231V96.9956H4.73077V83.2026ZM9.46154 87.207V92.9912H55.1923V87.207H9.46154Z" fill="white"/>
</svg>
