<svg width="64" height="74" viewBox="0 0 64 74" fill="none" xmlns="http://www.w3.org/2000/svg">
<path d="M49.0475 73.3333H53.82C56.235 73.3333 58.2188 71.1667 58.5063 68.4333L63.25 13.5H48.875V0H43.2113V13.5H28.9225L29.785 21.3C34.7012 22.8667 39.3013 25.7 42.0612 28.8333C46.2013 33.5667 49.0475 38.4667 49.0475 46.4667V73.3333ZM0 70V66.6667H43.2113V70C43.2113 71.8 41.9175 73.3333 40.25 73.3333H2.875C1.29375 73.3333 0 71.8 0 70ZM43.2113 46.6667C43.2113 20 0 20 0 46.6667H43.2113ZM0 53.3333H43.125V60H0V53.3333Z" fill="white"/>
</svg>
